<mxfile host="app.diagrams.net" modified="2022-11-13T15:53:18.019Z" agent="5.0 (X11)" etag="k1SySIVSysPvIWH4R4TX" version="20.4.1" type="github">
  <diagram name="Page-1" id="03018318-947c-dd8e-b7a3-06fadd420f32">
    <mxGraphModel dx="989" dy="683" grid="1" gridSize="10" guides="1" tooltips="1" connect="1" arrows="1" fold="1" page="1" pageScale="1" pageWidth="1100" pageHeight="850" background="none" math="0" shadow="0">
      <root>
        <mxCell id="0" />
        <mxCell id="1" parent="0" />
        <mxCell id="677b7b8949515195-2" value="&lt;font style=&quot;font-size: 20px;&quot;&gt;phrase à coder&lt;/font&gt;" style="whiteSpace=wrap;html=1;rounded=0;shadow=0;labelBackgroundColor=none;strokeWidth=1;fontFamily=Verdana;fontSize=28;align=center;comic=1;" parent="1" vertex="1">
          <mxGeometry x="255" y="90" width="405" height="30" as="geometry" />
        </mxCell>
        <mxCell id="-m5xdBGjjlJXM41IQzPP-1" value="Saisissez un texte" style="text;html=1;strokeColor=none;fillColor=none;align=center;verticalAlign=middle;whiteSpace=wrap;rounded=0;fontSize=20;" vertex="1" parent="1">
          <mxGeometry x="50" y="90" width="200" height="30" as="geometry" />
        </mxCell>
        <mxCell id="-m5xdBGjjlJXM41IQzPP-2" value="&lt;font style=&quot;font-size: 20px;&quot;&gt;14&lt;/font&gt;" style="whiteSpace=wrap;html=1;rounded=0;shadow=0;labelBackgroundColor=none;strokeWidth=1;fontFamily=Verdana;fontSize=28;align=center;comic=1;" vertex="1" parent="1">
          <mxGeometry x="255" y="129" width="65" height="30" as="geometry" />
        </mxCell>
        <mxCell id="-m5xdBGjjlJXM41IQzPP-3" value="Saisissez un clé" style="text;html=1;strokeColor=none;fillColor=none;align=center;verticalAlign=middle;whiteSpace=wrap;rounded=0;fontSize=20;" vertex="1" parent="1">
          <mxGeometry x="50" y="129" width="200" height="30" as="geometry" />
        </mxCell>
        <mxCell id="-m5xdBGjjlJXM41IQzPP-4" value="&lt;font style=&quot;font-size: 20px;&quot; color=&quot;#999999&quot;&gt;phrase codée&lt;/font&gt;" style="whiteSpace=wrap;html=1;rounded=0;shadow=0;labelBackgroundColor=none;strokeWidth=1;fontFamily=Verdana;fontSize=28;align=center;comic=1;" vertex="1" parent="1">
          <mxGeometry x="255" y="209" width="405" height="30" as="geometry" />
        </mxCell>
        <mxCell id="-m5xdBGjjlJXM41IQzPP-5" value="Texte codé" style="text;html=1;strokeColor=none;fillColor=none;align=center;verticalAlign=middle;whiteSpace=wrap;rounded=0;fontSize=20;" vertex="1" parent="1">
          <mxGeometry x="50" y="209" width="200" height="30" as="geometry" />
        </mxCell>
        <mxCell id="-m5xdBGjjlJXM41IQzPP-6" value="Coder" style="rounded=1;whiteSpace=wrap;html=1;fontSize=20;fillColor=#f5f5f5;fontColor=#333333;strokeColor=#666666;" vertex="1" parent="1">
          <mxGeometry x="255" y="168" width="120" height="31" as="geometry" />
        </mxCell>
      </root>
    </mxGraphModel>
  </diagram>
</mxfile>
